  0
SECTION
  2
HEADER
  9
$ACADVER
  1
AC1015
  9
$ACADMAINTVER
 70
     6
  9
$DWGCODEPAGE
  3
ANSI_1252
  9
$INSBASE
 10
0.0
 20
0.0
 30
0.0
  9
$EXTMIN
 10
0.0
 20
0.0
 30
0.0
  9
$EXTMAX
 10
2.463795
 20
8.034512
 30
2.0
  9
$LIMMIN
 10
0.0
 20
0.0
  9
$LIMMAX
 10
17.0
 20
11.0
  9
$ORTHOMODE
 70
     0
  9
$REGENMODE
 70
     1
  9
$FILLMODE
 70
     1
  9
$QTEXTMODE
 70
     0
  9
$MIRRTEXT
 70
     1
  9
$LTSCALE
 40
1.0
  9
$ATTMODE
 70
     1
  9
$TEXTSIZE
 40
0.2
  9
$TRACEWID
 40
0.05
  9
$TEXTSTYLE
  7
Standard
  9
$CLAYER
  8
0
  9
$CELTYPE
  6
ByLayer
  9
$CECOLOR
 62
   256
  9
$CELTSCALE
 40
1.0
  9
$DISPSILH
 70
     0
  9
$DIMSCALE
 40
1.0
  9
$DIMASZ
 40
0.18
  9
$DIMEXO
 40
0.0625
  9
$DIMDLI
 40
0.38
  9
$DIMRND
 40
0.0
  9
$DIMDLE
 40
0.0
  9
$DIMEXE
 40
0.18
  9
$DIMTP
 40
0.0
  9
$DIMTM
 40
0.0
  9
$DIMTXT
 40
0.18
  9
$DIMCEN
 40
0.09
  9
$DIMTSZ
 40
0.0
  9
$DIMTOL
 70
     0
  9
$DIMLIM
 70
     0
  9
$DIMTIH
 70
     1
  9
$DIMTOH
 70
     1
  9
$DIMSE1
 70
     0
  9
$DIMSE2
 70
     0
  9
$DIMTAD
 70
     0
  9
$DIMZIN
 70
     0
  9
$DIMBLK
  1

  9
$DIMASO
 70
     1
  9
$DIMSHO
 70
     1
  9
$DIMPOST
  1

  9
$DIMAPOST
  1

  9
$DIMALT
 70
     0
  9
$DIMALTD
 70
     2
  9
$DIMALTF
 40
25.4
  9
$DIMLFAC
 40
1.0
  9
$DIMTOFL
 70
     0
  9
$DIMTVP
 40
0.0
  9
$DIMTIX
 70
     0
  9
$DIMSOXD
 70
     0
  9
$DIMSAH
 70
     0
  9
$DIMBLK1
  1

  9
$DIMBLK2
  1

  9
$DIMSTYLE
  2
Standard
  9
$DIMCLRD
 70
     0
  9
$DIMCLRE
 70
     0
  9
$DIMCLRT
 70
     0
  9
$DIMTFAC
 40
1.0
  9
$DIMGAP
 40
0.09
  9
$DIMJUST
 70
     0
  9
$DIMSD1
 70
     0
  9
$DIMSD2
 70
     0
  9
$DIMTOLJ
 70
     1
  9
$DIMTZIN
 70
     0
  9
$DIMALTZ
 70
     0
  9
$DIMALTTZ
 70
     0
  9
$DIMUPT
 70
     0
  9
$DIMDEC
 70
     4
  9
$DIMTDEC
 70
     4
  9
$DIMALTU
 70
     2
  9
$DIMALTTD
 70
     2
  9
$DIMTXSTY
  7
Standard
  9
$DIMAUNIT
 70
     0
  9
$DIMADEC
 70
     0
  9
$DIMALTRND
 40
0.0
  9
$DIMAZIN
 70
     0
  9
$DIMDSEP
 70
    46
  9
$DIMATFIT
 70
     0
  9
$DIMFRAC
 70
     0
  9
$DIMLDRBLK
  1

  9
$DIMLUNIT
 70
     2
  9
$DIMLWD
 70
    -2
  9
$DIMLWE
 70
    -2
  9
$DIMTMOVE
 70
     0
  9
$LUNITS
 70
     2
  9
$LUPREC
 70
     4
  9
$SKETCHINC
 40
0.1
  9
$FILLETRAD
 40
0.125
  9
$AUNITS
 70
     0
  9
$AUPREC
 70
     0
  9
$MENU
  1
.
  9
$ELEVATION
 40
0.0
  9
$PELEVATION
 40
0.0
  9
$THICKNESS
 40
0.0
  9
$LIMCHECK
 70
     0
  9
$CHAMFERA
 40
0.125
  9
$CHAMFERB
 40
0.125
  9
$CHAMFERC
 40
0.0
  9
$CHAMFERD
 40
0.0
  9
$SKPOLY
 70
     0
  9
$TDCREATE
 40
2447892.833333333
  9
$TDUCREATE
 40
0.0
  9
$TDUPDATE
 40
2458051.943655394
  9
$TDUUPDATE
 40
2458052.11032206
  9
$TDINDWG
 40
0.0
  9
$TDUSRTIMER
 40
0.0
  9
$USRTIMER
 70
     1
  9
$ANGBASE
 50
0.0
  9
$ANGDIR
 70
     0
  9
$PDMODE
 70
     0
  9
$PDSIZE
 40
0.0
  9
$PLINEWID
 40
0.0
  9
$SPLFRAME
 70
     0
  9
$SPLINETYPE
 70
     6
  9
$SPLINESEGS
 70
     8
  9
$HANDSEED
  5
130
  9
$SURFTAB1
 70
     6
  9
$SURFTAB2
 70
     6
  9
$SURFTYPE
 70
     6
  9
$SURFU
 70
     6
  9
$SURFV
 70
     6
  9
$UCSBASE
  2

  9
$UCSNAME
  2

  9
$UCSORG
 10
0.0
 20
0.0
 30
0.0
  9
$UCSXDIR
 10
1.0
 20
0.0
 30
0.0
  9
$UCSYDIR
 10
0.0
 20
1.0
 30
0.0
  9
$UCSORTHOREF
  2

  9
$UCSORTHOVIEW
 70
     1
  9
$UCSORGTOP
 10
0.0
 20
0.0
 30
0.0
  9
$UCSORGBOTTOM
 10
0.0
 20
0.0
 30
0.0
  9
$UCSORGLEFT
 10
0.0
 20
0.0
 30
0.0
  9
$UCSORGRIGHT
 10
0.0
 20
0.0
 30
0.0
  9
$UCSORGFRONT
 10
0.0
 20
0.0
 30
0.0
  9
$UCSORGBACK
 10
0.0
 20
0.0
 30
0.0
  9
$PUCSBASE
  2

  9
$PUCSNAME
  2

  9
$PUCSORG
 10
0.0
 20
0.0
 30
0.0
  9
$PUCSXDIR
 10
1.0
 20
0.0
 30
0.0
  9
$PUCSYDIR
 10
0.0
 20
1.0
 30
0.0
  9
$PUCSORTHOREF
  2

  9
$PUCSORTHOVIEW
 70
     0
  9
$PUCSORGTOP
 10
0.0
 20
0.0
 30
0.0
  9
$PUCSORGBOTTOM
 10
0.0
 20
0.0
 30
0.0
  9
$PUCSORGLEFT
 10
0.0
 20
0.0
 30
0.0
  9
$PUCSORGRIGHT
 10
0.0
 20
0.0
 30
0.0
  9
$PUCSORGFRONT
 10
0.0
 20
0.0
 30
0.0
  9
$PUCSORGBACK
 10
0.0
 20
0.0
 30
0.0
  9
$USERI1
 70
     0
  9
$USERI2
 70
     0
  9
$USERI3
 70
     0
  9
$USERI4
 70
     0
  9
$USERI5
 70
     0
  9
$USERR1
 40
0.0
  9
$USERR2
 40
0.0
  9
$USERR3
 40
0.0
  9
$USERR4
 40
0.0
  9
$USERR5
 40
0.0
  9
$WORLDVIEW
 70
     1
  9
$SHADEDGE
 70
     3
  9
$SHADEDIF
 70
    70
  9
$TILEMODE
 70
     1
  9
$MAXACTVP
 70
    64
  9
$PINSBASE
 10
0.0
 20
0.0
 30
0.0
  9
$PLIMCHECK
 70
     0
  9
$PEXTMIN
 10
0.0
 20
0.0
 30
0.0
  9
$PEXTMAX
 10
2.463795
 20
8.034512
 30
2.0
  9
$PLIMMIN
 10
0.0
 20
0.0
  9
$PLIMMAX
 10
12.0
 20
9.0
  9
$UNITMODE
 70
     0
  9
$VISRETAIN
 70
     0
  9
$PLINEGEN
 70
     0
  9
$PSLTSCALE
 70
     1
  9
$TREEDEPTH
 70
  3020
  9
$CMLSTYLE
  2
Standard
  9
$CMLJUST
 70
     0
  9
$CMLSCALE
 40
1.0
  9
$PROXYGRAPHICS
 70
     1
  9
$MEASUREMENT
 70
     0
  9
$CELWEIGHT
370
    -1
  9
$ENDCAPS
280
     0
  9
$JOINSTYLE
280
     0
  9
$LWDISPLAY
290
     0
  9
$INSUNITS
 70
     0
  9
$HYPERLINKBASE
  1

  9
$STYLESHEET
  1

  9
$XEDIT
290
     1
  9
$CEPSNTYPE
380
     0
  9
$PSTYLEMODE
290
     0
  9
$FINGERPRINTGUID
  2
{2B11B9FE-C85E-4BA6-9CF0-7BE53B72E25C}
  9
$VERSIONGUID
  2
{FAEB1C32-E019-11D5-929B-00C0DF256EC4}
  9
$EXTNAMES
290
     1
  9
$PSVPSCALE
 40
0.0
  9
$OLESTARTUP
290
     0
  0
ENDSEC
  0
SECTION
  2
CLASSES
  0
CLASS
  1
ACDBDICTIONARYWDFLT
  2
AcDbDictionaryWithDefault
  3
ObjectDBX Classes
 90
        0
280
     0
281
     0
  0
CLASS
  1
VISUALSTYLE
  2
AcDbVisualStyle
  3
ObjectDBX Classes
 90
     4095
280
     0
281
     0
  0
CLASS
  1
MATERIAL
  2
AcDbMaterial
  3
ObjectDBX Classes
 90
     1153
280
     0
281
     0
  0
CLASS
  1
SCALE
  2
AcDbScale
  3
ObjectDBX Classes
 90
     1153
280
     0
281
     0
  0
CLASS
  1
SUN
  2
AcDbSun
  3
SCENEOE
 90
     1153
280
     0
281
     0
  0
CLASS
  1
ACDBPLACEHOLDER
  2
AcDbPlaceHolder
  3
ObjectDBX Classes
 90
        0
280
     0
281
     0
  0
CLASS
  1
LAYOUT
  2
AcDbLayout
  3
ObjectDBX Classes
 90
        0
280
     0
281
     0
  0
ENDSEC
  0
SECTION
  2
TABLES
  0
TABLE
  2
VPORT
  5
8
330
0
100
AcDbSymbolTable
 70
     1
  0
VPORT
  5
29
330
8
100
AcDbSymbolTableRecord
100
AcDbViewportTableRecord
  2
*Active
 70
     0
 10
0.0
 20
0.0
 11
1.0
 21
1.0
 12
10.429907
 22
4.5
 13
0.0
 23
0.0
 14
0.5
 24
0.5
 15
0.5
 25
0.5
 16
0.0
 26
0.0
 36
1.0
 17
0.0
 27
0.0
 37
0.0
 40
9.0
 41
1.972973
 42
50.0
 43
0.0
 44
0.0
 50
0.0
 51
0.0
 71
     0
 72
   100
 73
     1
 74
     3
 75
     0
 76
     0
 77
     0
 78
     0
281
     0
 65
     1
110
0.0
120
0.0
130
0.0
111
1.0
121
0.0
131
0.0
112
0.0
122
1.0
132
0.0
 79
     0
146
0.0
  0
ENDTAB
  0
TABLE
  2
LTYPE
  5
5
330
0
100
AcDbSymbolTable
 70
     1
  0
LTYPE
  5
14
330
5
100
AcDbSymbolTableRecord
100
AcDbLinetypeTableRecord
  2
ByBlock
 70
     0
  3

 72
    65
 73
     0
 40
0.0
  0
LTYPE
  5
15
330
5
100
AcDbSymbolTableRecord
100
AcDbLinetypeTableRecord
  2
ByLayer
 70
     0
  3

 72
    65
 73
     0
 40
0.0
  0
LTYPE
  5
16
330
5
100
AcDbSymbolTableRecord
100
AcDbLinetypeTableRecord
  2
Continuous
 70
     0
  3
Solid line
 72
    65
 73
     0
 40
0.0
  0
ENDTAB
  0
TABLE
  2
LAYER
  5
2
330
0
100
AcDbSymbolTable
 70
     1
  0
LAYER
  5
10
330
2
100
AcDbSymbolTableRecord
100
AcDbLayerTableRecord
  2
0
 70
     0
 62
     7
  6
Continuous
370
    -3
390
F
  0
ENDTAB
  0
TABLE
  2
STYLE
  5
3
330
0
100
AcDbSymbolTable
 70
     1
  0
STYLE
  5
11
330
3
100
AcDbSymbolTableRecord
100
AcDbTextStyleTableRecord
  2
Standard
 70
     0
 40
0.0
 41
1.0
 50
0.0
 71
     0
 42
0.2
  3
txt
  4

  0
ENDTAB
  0
TABLE
  2
VIEW
  5
6
330
0
100
AcDbSymbolTable
 70
     0
  0
ENDTAB
  0
TABLE
  2
UCS
  5
7
330
0
100
AcDbSymbolTable
 70
     0
  0
ENDTAB
  0
TABLE
  2
APPID
  5
9
330
0
100
AcDbSymbolTable
 70
     1
  0
APPID
  5
12
330
9
100
AcDbSymbolTableRecord
100
AcDbRegAppTableRecord
  2
ACAD
 70
     0
  0
ENDTAB
  0
TABLE
  2
DIMSTYLE
  5
A
330
0
100
AcDbSymbolTable
 70
     1
100
AcDbDimStyleTable
  0
DIMSTYLE
105
27
330
A
100
AcDbSymbolTableRecord
100
AcDbDimStyleTableRecord
  2
Standard
 70
     0
178
     0
340
11
  0
ENDTAB
  0
TABLE
  2
BLOCK_RECORD
  5
1
330
0
100
AcDbSymbolTable
 70
     1
  0
BLOCK_RECORD
  5
1F
330
1
100
AcDbSymbolTableRecord
100
AcDbBlockTableRecord
  2
*Model_Space
340
22
  0
BLOCK_RECORD
  5
1B
330
1
100
AcDbSymbolTableRecord
100
AcDbBlockTableRecord
  2
*Paper_Space
340
1E
  0
BLOCK_RECORD
  5
23
330
1
100
AcDbSymbolTableRecord
100
AcDbBlockTableRecord
  2
*Paper_Space0
340
26
  0
ENDTAB
  0
ENDSEC
  0
SECTION
  2
BLOCKS
  0
BLOCK
  5
20
330
1F
100
AcDbEntity
  8
0
100
AcDbBlockBegin
  2
*Model_Space
 70
     0
 10
0.0
 20
0.0
 30
0.0
  3
*Model_Space
  1
*Model_Space
  0
ENDBLK
  5
21
330
1F
100
AcDbEntity
  8
0
100
AcDbBlockEnd
  0
BLOCK
  5
1C
330
1B
100
AcDbEntity
 67
     1
  8
0
100
AcDbBlockBegin
  2
*Paper_Space
 70
     0
 10
0.0
 20
0.0
 30
0.0
  3
*Paper_Space
  1
*Paper_Space
  0
ENDBLK
  5
1D
330
1B
100
AcDbEntity
 67
     1
  8
0
100
AcDbBlockEnd
  0
BLOCK
  5
24
330
23
100
AcDbEntity
  8
0
100
AcDbBlockBegin
  2
*Paper_Space0
 70
     0
 10
0.0
 20
0.0
 30
0.0
  3
*Paper_Space0
  1
*Paper_Space0
  0
ENDBLK
  5
25
330
23
100
AcDbEntity
  8
0
100
AcDbBlockEnd
  0
ENDSEC
  0
SECTION
  2
ENTITIES
  0
ARC
  5
6A
330
1F
100
AcDbEntity
  8
0
 62
     7
370
    35
100
AcDbCircle
 10
1.355595
 20
6.147535
 30
0.0
 40
0.0668249997406009
100
AcDbArc
 50
29.78261
 51
134.565218
  0
ARC
  5
6B
330
1F
100
AcDbEntity
  8
0
 62
     7
370
    35
100
AcDbCircle
 10
1.605595
 20
6.147535
 30
0.0
 40
0.066824999740601
100
AcDbArc
 50
45.434784
 51
150.217389
  0
ARC
  5
6C
330
1F
100
AcDbEntity
  8
0
 62
     7
370
    35
100
AcDbCircle
 10
1.846324
 20
6.214985
 30
0.0
 40
0.0668250002903962
100
AcDbArc
 50
61.086958
 51
165.869559
  0
ARC
  5
6D
330
1F
100
AcDbEntity
  8
0
 62
     7
370
    35
100
AcDbCircle
 10
2.059929
 20
6.344881
 30
0.0
 40
0.0668250001303612
100
AcDbArc
 50
76.739129
 51
180.000005
  0
ARC
  5
6E
330
1F
100
AcDbEntity
  8
0
 62
     7
370
    35
100
AcDbCircle
 10
2.230567
 20
6.52759
 30
0.0
 40
0.0668250002551491
100
AcDbArc
 50
92.391306
 51
179.999991
  0
ARC
  5
6F
330
1F
100
AcDbEntity
  8
0
 62
     7
370
    35
100
AcDbCircle
 10
2.345583
 20
6.749561
 30
0.0
 40
0.0668250001131489
100
AcDbArc
 50
108.043477
 51
212.826089
  0
ARC
  5
70
330
1F
100
AcDbEntity
  8
0
 62
     7
370
    35
100
AcDbCircle
 10
2.396447
 20
6.994332
 30
0.0
 40
0.0668250000024319
100
AcDbArc
 50
123.695655
 51
228.47826
  0
ARC
  5
71
330
1F
100
AcDbEntity
  8
0
 62
     7
370
    35
100
AcDbCircle
 10
2.379387
 20
7.243749
 30
0.0
 40
0.0668249997205435
100
AcDbArc
 50
139.347826
 51
244.130431
  0
ARC
  5
72
330
1F
100
AcDbEntity
  8
0
 62
     7
370
    35
100
AcDbCircle
 10
2.295667
 20
7.479314
 30
0.0
 40
0.0668249999997062
100
AcDbArc
 50
154.999996
 51
259.782608
  0
ARC
  5
73
330
1F
100
AcDbEntity
  8
0
 62
     7
370
    35
100
AcDbCircle
 10
2.151497
 20
7.683557
 30
0.0
 40
0.0668250003508929
100
AcDbArc
 50
170.652181
 51
275.434779
  0
ARC
  5
74
330
1F
100
AcDbEntity
  8
0
 62
     7
370
    35
100
AcDbCircle
 10
1.957569
 20
7.841329
 30
0.0
 40
0.0668250001530964
100
AcDbArc
 50
186.304342
 51
291.086957
  0
ARC
  5
75
330
1F
100
AcDbEntity
  8
0
 62
     7
370
    35
100
AcDbCircle
 10
1.728266
 20
7.940929
 30
0.0
 40
0.0668249998263619
100
AcDbArc
 50
201.956526
 51
306.739131
  0
ARC
  5
76
330
1F
100
AcDbEntity
  8
0
 62
     7
370
    35
100
AcDbCircle
 10
1.480595
 20
7.974971
 30
0.0
 40
0.0668249999837218
100
AcDbArc
 50
217.608697
 51
322.391305
  0
ARC
  5
77
330
1F
100
AcDbEntity
  8
0
 62
     7
370
    35
100
AcDbCircle
 10
1.232923
 20
7.940929
 30
0.0
 40
0.0668249998263619
100
AcDbArc
 50
233.260868
 51
338.043479
  0
ARC
  5
78
330
1F
100
AcDbEntity
  8
0
 62
     7
370
    35
100
AcDbCircle
 10
1.00362
 20
7.841329
 30
0.0
 40
0.0668250001530964
100
AcDbArc
 50
248.913045
 51
353.695652
  0
ARC
  5
79
330
1F
100
AcDbEntity
  8
0
 62
     7
370
    35
100
AcDbCircle
 10
0.809693
 20
7.683557
 30
0.0
 40
0.0668250003508929
100
AcDbArc
 50
264.565216
 51
360.0
  0
ARC
  5
7A
330
1F
100
AcDbEntity
  8
0
 62
     7
370
    35
100
AcDbCircle
 10
0.665522
 20
7.479314
 30
0.0
 40
0.0668249999999999
100
AcDbArc
 50
280.217394
 51
25.000002
  0
ARC
  5
7B
330
1F
100
AcDbEntity
  8
0
 62
     7
370
    35
100
AcDbCircle
 10
0.581803
 20
7.243749
 30
0.0
 40
0.0668249999999999
100
AcDbArc
 50
295.869564
 51
40.652176
  0
ARC
  5
7C
330
1F
100
AcDbEntity
  8
0
 62
     7
370
    35
100
AcDbCircle
 10
0.564742
 20
6.994332
 30
0.0
 40
0.0668249999999999
100
AcDbArc
 50
311.521739
 51
56.304347
  0
ARC
  5
7D
330
1F
100
AcDbEntity
  8
0
 62
     7
370
    35
100
AcDbCircle
 10
0.615606
 20
6.749561
 30
0.0
 40
0.0668249999999999
100
AcDbArc
 50
327.173913
 51
71.956521
  0
ARC
  5
7E
330
1F
100
AcDbEntity
  8
0
 62
     7
370
    35
100
AcDbCircle
 10
0.730622
 20
6.52759
 30
0.0
 40
0.0668249999999999
100
AcDbArc
 50
342.826089
 51
87.608699
  0
ARC
  5
7F
330
1F
100
AcDbEntity
  8
0
 62
     7
370
    35
100
AcDbCircle
 10
0.901261
 20
6.344881
 30
0.0
 40
0.0668249999999998
100
AcDbArc
 50
360.0
 51
103.260869
  0
ARC
  5
80
330
1F
100
AcDbEntity
  8
0
 62
     7
370
    35
100
AcDbCircle
 10
1.114865
 20
6.214985
 30
0.0
 40
0.0668250002903962
100
AcDbArc
 50
14.130435
 51
118.913047
  0
LINE
  5
81
330
1F
100
AcDbEntity
  8
0
 62
     7
370
    35
100
AcDbLine
 10
1.605595
 20
7.681978
 30
0.0
 11
1.355595
 21
7.681978
 31
0.0
  0
LINE
  5
82
330
1F
100
AcDbEntity
  8
0
 62
     7
370
    35
100
AcDbLine
 10
1.605595
 20
7.66935
 30
0.0
 11
1.605595
 21
7.681978
 31
0.0
  0
LINE
  5
83
330
1F
100
AcDbEntity
  8
0
 62
     7
370
    35
100
AcDbLine
 10
1.355595
 20
7.681978
 30
0.0
 11
1.355595
 21
7.66935
 31
0.0
  0
LINE
  5
84
330
1F
100
AcDbEntity
  8
0
 62
     7
370
    35
100
AcDbLine
 10
1.605595
 20
7.66935
 30
0.0
 11
1.605595
 21
7.541101
 31
0.0
  0
ARC
  5
85
330
1F
100
AcDbEntity
  8
0
 62
     7
370
    35
100
AcDbCircle
 10
1.480595
 20
7.056978
 30
0.0
 40
0.4999999999999999
100
AcDbArc
 50
104.477511
 51
75.522488
  0
LINE
  5
86
330
1F
100
AcDbEntity
  8
0
 62
     7
370
    35
100
AcDbLine
 10
1.355595
 20
7.541101
 30
0.0
 11
1.355595
 21
7.66935
 31
0.0
  0
ARC
  5
87
330
1F
100
AcDbEntity
  8
0
 62
     7
370
    35
100
AcDbCircle
 10
1.265331
 20
6.095877
 30
0.0
 40
0.1708249999999997
100
AcDbArc
 50
14.217391
 51
29.78261
  0
LINE
  5
88
330
1F
100
AcDbEntity
  8
0
 62
     7
370
    35
100
AcDbLine
 10
1.435048
 20
6.121554
 30
0.0
 11
1.430924
 21
6.137832
 31
0.0
  0
ARC
  5
89
330
1F
100
AcDbEntity
  8
0
 62
     7
370
    35
100
AcDbCircle
 10
1.537595
 20
6.147535
 30
0.0
 40
0.1057863607685339
100
AcDbArc
 50
194.217389
 51
225.028686
  0
ARC
  5
8A
330
1F
100
AcDbEntity
  8
0
 62
     7
370
    35
100
AcDbCircle
 10
1.480595
 20
7.056978
 30
0.0
 40
0.9844425402729379
100
AcDbArc
 50
268.966009
 51
271.033986
  0
ARC
  5
8B
330
1F
100
AcDbEntity
  8
0
 62
     7
370
    35
100
AcDbCircle
 10
1.423595
 20
6.147535
 30
0.0
 40
0.1057863607685339
100
AcDbArc
 50
314.971309
 51
345.782609
  0
LINE
  5
8C
330
1F
100
AcDbEntity
  8
0
 62
     7
370
    35
100
AcDbLine
 10
1.530265
 20
6.137832
 30
0.0
 11
1.526141
 21
6.121554
 31
0.0
  0
ARC
  5
8D
330
1F
100
AcDbEntity
  8
0
 62
     7
370
    35
100
AcDbCircle
 10
1.695858
 20
6.095877
 30
0.0
 40
0.1708249999999998
100
AcDbArc
 50
150.217389
 51
165.782611
  0
LINE
  5
8E
330
1F
100
AcDbEntity
  8
0
 62
     7
370
    35
100
AcDbLine
 10
1.776826
 20
6.16853
 30
0.0
 11
1.776859
 21
6.165881
 31
0.0
  0
LINE
  5
8F
330
1F
100
AcDbEntity
  8
0
 62
     7
370
    35
100
AcDbLine
 10
1.776406
 20
6.185318
 30
0.0
 11
1.776826
 21
6.16853
 31
0.0
  0
LINE
  5
90
330
1F
100
AcDbEntity
  8
0
 62
     7
370
    35
100
AcDbLine
 10
1.776351
 20
6.189595
 30
0.0
 11
1.776406
 21
6.185318
 31
0.0
  0
ARC
  5
91
330
1F
100
AcDbEntity
  8
0
 62
     7
370
    35
100
AcDbCircle
 10
1.947177
 20
6.189595
 30
0.0
 40
0.1708249999999997
100
AcDbArc
 50
165.869559
 51
179.999991
  0
ARC
  5
92
330
1F
100
AcDbEntity
  8
0
 62
     7
370
    35
100
AcDbCircle
 10
1.532616
 20
6.07344
 30
0.0
 40
0.1708249999999997
100
AcDbArc
 50
29.869565
 51
45.434784
  0
LINE
  5
93
330
1F
100
AcDbEntity
  8
0
 62
     7
370
    35
100
AcDbLine
 10
1.689112
 20
6.143954
 30
0.0
 11
1.680749
 21
6.158516
 31
0.0
  0
ARC
  5
94
330
1F
100
AcDbEntity
  8
0
 62
     7
370
    35
100
AcDbCircle
 10
1.780846
 20
6.196638
 30
0.0
 40
0.1057863607685339
100
AcDbArc
 50
209.86956
 51
240.680857
  0
ARC
  5
95
330
1F
100
AcDbEntity
  8
0
 62
     7
370
    35
100
AcDbCircle
 10
1.480595
 20
7.056978
 30
0.0
 40
0.9844425402729382
100
AcDbArc
 50
284.618187
 51
286.686163
  0
ARC
  5
96
330
1F
100
AcDbEntity
  8
0
 62
     7
370
    35
100
AcDbCircle
 10
1.671073
 20
6.165881
 30
0.0
 40
0.1057863607685339
100
AcDbArc
 50
330.623486
 51
0.0
  0
ARC
  5
97
330
1F
100
AcDbEntity
  8
0
 62
     7
370
    35
100
AcDbCircle
 10
1.904425
 20
6.250316
 30
0.0
 40
0.1057863607685339
100
AcDbArc
 50
346.275659
 51
17.086958
  0
LINE
  5
98
330
1F
100
AcDbEntity
  8
0
 62
     7
370
    35
100
AcDbLine
 10
2.000607
 20
6.29745
 30
0.0
 11
2.005541
 21
6.281399
 31
0.0
  0
ARC
  5
99
330
1F
100
AcDbEntity
  8
0
 62
     7
370
    35
100
AcDbCircle
 10
2.163892
 20
6.347642
 30
0.0
 40
0.1708249999999997
100
AcDbArc
 50
181.521734
 51
197.086956
  0
LINE
  5
9A
330
1F
100
AcDbEntity
  8
0
 62
     7
370
    35
100
AcDbLine
 10
1.993104
 20
6.344881
 30
0.0
 11
1.993127
 21
6.343106
 31
0.0
  0
ARC
  5
9B
330
1F
100
AcDbEntity
  8
0
 62
     7
370
    35
100
AcDbCircle
 10
1.796042
 20
6.123948
 30
0.0
 40
0.1708249999999997
100
AcDbArc
 50
45.521739
 51
61.086958
  0
LINE
  5
9C
330
1F
100
AcDbEntity
  8
0
 62
     7
370
    35
100
AcDbLine
 10
1.92771
 20
6.234068
 30
0.0
 11
1.915729
 21
6.245834
 31
0.0
  0
ARC
  5
9D
330
1F
100
AcDbEntity
  8
0
 62
     7
370
    35
100
AcDbCircle
 10
2.001828
 20
6.309549
 30
0.0
 40
0.1057863607685339
100
AcDbArc
 50
225.521744
 51
256.333035
  0
ARC
  5
9E
330
1F
100
AcDbEntity
  8
0
 62
     7
370
    35
100
AcDbCircle
 10
1.480595
 20
7.056978
 30
0.0
 40
0.9844425402729382
100
AcDbArc
 50
300.270358
 51
302.338334
  0
ARC
  5
9F
330
1F
100
AcDbEntity
  8
0
 62
     7
370
    35
100
AcDbCircle
 10
2.106342
 20
6.394578
 30
0.0
 40
0.1057863607685339
100
AcDbArc
 50
1.927832
 51
32.739132
  0
LINE
  5
A0
330
1F
100
AcDbEntity
  8
0
 62
     7
370
    35
100
AcDbLine
 10
2.186242
 20
6.465913
 30
0.0
 11
2.195324
 21
6.451788
 31
0.0
  0
ARC
  5
A1
330
1F
100
AcDbEntity
  8
0
 62
     7
370
    35
100
AcDbCircle
 10
2.32993
 20
6.558298
 30
0.0
 40
0.1708249999999998
100
AcDbArc
 50
197.173918
 51
212.739127
  0
ARC
  5
A2
330
1F
100
AcDbEntity
  8
0
 62
     7
370
    35
100
AcDbCircle
 10
2.230567
 20
6.52759
 30
0.0
 40
0.0668249999999999
100
AcDbArc
 50
179.999991
 51
197.173918
  0
ARC
  5
A3
330
1F
100
AcDbEntity
  8
0
 62
     7
370
    35
100
AcDbCircle
 10
2.036073
 20
6.243654
 30
0.0
 40
0.1708249999999997
100
AcDbArc
 50
61.173913
 51
76.739129
  0
LINE
  5
A4
330
1F
100
AcDbEntity
  8
0
 62
     7
370
    35
100
AcDbLine
 10
2.133148
 20
6.385214
 30
0.0
 11
2.118437
 21
6.393311
 31
0.0
  0
ARC
  5
A5
330
1F
100
AcDbEntity
  8
0
 62
     7
370
    35
100
AcDbCircle
 10
2.184154
 20
6.477892
 30
0.0
 40
0.1057863607685339
100
AcDbArc
 50
241.173915
 51
271.985212
  0
ARC
  5
A6
330
1F
100
AcDbEntity
  8
0
 62
     7
370
    35
100
AcDbCircle
 10
1.480595
 20
7.056978
 30
0.0
 40
0.984442540272938
100
AcDbArc
 50
315.922535
 51
317.990508
  0
ARC
  5
A7
330
1F
100
AcDbEntity
  8
0
 62
     7
370
    35
100
AcDbCircle
 10
2.261852
 20
6.587966
 30
0.0
 40
0.1057863607685339
100
AcDbArc
 50
17.580005
 51
48.391303
  0
LINE
  5
A8
330
1F
100
AcDbEntity
  8
0
 62
     7
370
    35
100
AcDbLine
 10
2.319542
 20
6.678213
 30
0.0
 11
2.332098
 21
6.667062
 31
0.0
  0
ARC
  5
A9
330
1F
100
AcDbEntity
  8
0
 62
     7
370
    35
100
AcDbCircle
 10
2.432977
 20
6.805938
 30
0.0
 40
0.1708249999999997
100
AcDbArc
 50
212.826089
 51
228.391298
  0
ARC
  5
AA
330
1F
100
AcDbEntity
  8
0
 62
     7
370
    35
100
AcDbCircle
 10
2.234906
 20
6.42368
 30
0.0
 40
0.1708249999999997
100
AcDbArc
 50
76.826084
 51
92.391306
  0
LINE
  5
AB
330
1F
100
AcDbEntity
  8
0
 62
     7
370
    35
100
AcDbLine
 10
2.29019
 20
6.586182
 30
0.0
 11
2.273839
 21
6.59001
 31
0.0
  0
ARC
  5
AC
330
1F
100
AcDbEntity
  8
0
 62
     7
370
    35
100
AcDbCircle
 10
2.314299
 20
6.689185
 30
0.0
 40
0.1057863607685339
100
AcDbArc
 50
256.826086
 51
287.637383
  0
ARC
  5
AD
330
1F
100
AcDbEntity
  8
0
 62
     7
370
    35
100
AcDbCircle
 10
1.480595
 20
7.056978
 30
0.0
 40
0.9844425402729379
100
AcDbArc
 50
331.574706
 51
333.642684
  0
ARC
  5
AE
330
1F
100
AcDbEntity
  8
0
 62
     7
370
    35
100
AcDbCircle
 10
2.359418
 20
6.816138
 30
0.0
 40
0.1057863607685339
100
AcDbArc
 50
33.23218
 51
64.04348
  0
LINE
  5
AF
330
1F
100
AcDbEntity
  8
0
 62
     7
370
    35
100
AcDbLine
 10
2.390621
 20
6.918604
 30
0.0
 11
2.40572
 21
6.911254
 31
0.0
  0
ARC
  5
B0
330
1F
100
AcDbEntity
  8
0
 62
     7
370
    35
100
AcDbCircle
 10
2.465389
 20
7.072197
 30
0.0
 40
0.1708249999999998
100
AcDbArc
 50
228.47826
 51
244.043482
  0
ARC
  5
B1
330
1F
100
AcDbEntity
  8
0
 62
     7
370
    35
100
AcDbCircle
 10
2.377796
 20
6.650675
 30
0.0
 40
0.1708249999999997
100
AcDbArc
 50
92.478262
 51
108.043477
  0
LINE
  5
B2
330
1F
100
AcDbEntity
  8
0
 62
     7
370
    35
100
AcDbLine
 10
2.387187
 20
6.822066
 30
0.0
 11
2.37041
 21
6.821341
 31
0.0
  0
ARC
  5
B3
330
1F
100
AcDbEntity
  8
0
 62
     7
370
    35
100
AcDbCircle
 10
2.382612
 20
6.927754
 30
0.0
 40
0.1057863607685339
100
AcDbArc
 50
272.478263
 51
303.289557
  0
ARC
  5
B4
330
1F
100
AcDbEntity
  8
0
 62
     7
370
    35
100
AcDbCircle
 10
1.480595
 20
7.056978
 30
0.0
 40
0.9844425402729382
100
AcDbArc
 50
347.22688
 51
349.294858
  0
ARC
  5
B5
330
1F
100
AcDbEntity
  8
0
 62
     7
370
    35
100
AcDbCircle
 10
2.454145
 20
6.907804
 30
0.0
 40
0.1708249999999997
100
AcDbArc
 50
108.130432
 51
123.695655
  0
LINE
  5
B6
330
1F
100
AcDbEntity
  8
0
 62
     7
370
    35
100
AcDbLine
 10
2.416946
 20
7.075373
 30
0.0
 11
2.400987
 21
7.070148
 31
0.0
  0
ARC
  5
B7
330
1F
100
AcDbEntity
  8
0
 62
     7
370
    35
100
AcDbCircle
 10
2.384027
 20
7.175908
 30
0.0
 40
0.1057863607685339
100
AcDbArc
 50
288.130434
 51
318.941735
  0
ARC
  5
B8
330
1F
100
AcDbEntity
  8
0
 62
     7
370
    35
100
AcDbCircle
 10
1.480595
 20
7.056978
 30
0.0
 40
0.9844425402729379
100
AcDbArc
 50
2.879055
 51
4.947033
  0
ARC
  5
B9
330
1F
100
AcDbEntity
  8
0
 62
     7
370
    35
100
AcDbCircle
 10
2.391807
 20
7.062173
 30
0.0
 40
0.1057863607685339
100
AcDbArc
 50
48.884354
 51
79.695651
  0
LINE
  5
BA
330
1F
100
AcDbEntity
  8
0
 62
     7
370
    35
100
AcDbLine
 10
2.394208
 20
7.169257
 30
0.0
 11
2.41073
 21
7.166254
 31
0.0
  0
ARC
  5
BB
330
1F
100
AcDbEntity
  8
0
 62
     7
370
    35
100
AcDbCircle
 10
2.424765
 20
7.337327
 30
0.0
 40
0.1708249999999998
100
AcDbArc
 50
244.130431
 51
259.695653
  0
ARC
  5
BC
330
1F
100
AcDbEntity
  8
0
 62
     7
370
    35
100
AcDbCircle
 10
2.356615
 20
7.307823
 30
0.0
 40
0.1057863607685339
100
AcDbArc
 50
64.536531
 51
95.347829
  0
LINE
  5
BD
330
1F
100
AcDbEntity
  8
0
 62
     7
370
    35
100
AcDbLine
 10
2.330036
 20
7.411584
 30
0.0
 11
2.346756
 21
7.413149
 31
0.0
  0
ARC
  5
BE
330
1F
100
AcDbEntity
  8
0
 62
     7
370
    35
100
AcDbCircle
 10
2.314115
 20
7.581665
 30
0.0
 40
0.1708249999999997
100
AcDbArc
 50
259.782608
 51
275.347824
  0
ARC
  5
BF
330
1F
100
AcDbEntity
  8
0
 62
     7
370
    35
100
AcDbCircle
 10
2.458289
 20
7.175996
 30
0.0
 40
0.1708249999999998
100
AcDbArc
 50
123.782603
 51
139.347826
  0
LINE
  5
C0
330
1F
100
AcDbEntity
  8
0
 62
     7
370
    35
100
AcDbLine
 10
2.37726
 20
7.327316
 30
0.0
 11
2.363303
 21
7.317978
 31
0.0
  0
ARC
  5
C1
330
1F
100
AcDbEntity
  8
0
 62
     7
370
    35
100
AcDbCircle
 10
2.318439
 20
7.41524
 30
0.0
 40
0.1057863607685339
100
AcDbArc
 50
303.782608
 51
334.593908
  0
ARC
  5
C2
330
1F
100
AcDbEntity
  8
0
 62
     7
370
    35
100
AcDbCircle
 10
1.480595
 20
7.056978
 30
0.0
 40
0.9844425402729379
100
AcDbArc
 50
18.531227
 51
20.599207
  0
ARC
  5
C3
330
1F
100
AcDbEntity
  8
0
 62
     7
370
    35
100
AcDbCircle
 10
2.256453
 20
7.534868
 30
0.0
 40
0.1057863607685339
100
AcDbArc
 50
80.188702
 51
111.0
  0
LINE
  5
C4
330
1F
100
AcDbEntity
  8
0
 62
     7
370
    35
100
AcDbLine
 10
2.202865
 20
7.62761
 30
0.0
 11
2.218542
 21
7.633629
 31
0.0
  0
ARC
  5
C5
330
1F
100
AcDbEntity
  8
0
 62
     7
370
    35
100
AcDbCircle
 10
2.141647
 20
7.787089
 30
0.0
 40
0.1708249999999997
100
AcDbArc
 50
275.434786
 51
291.000001
  0
ARC
  5
C6
330
1F
100
AcDbEntity
  8
0
 62
     7
370
    35
100
AcDbCircle
 10
2.389923
 20
7.435362
 30
0.0
 40
0.1708249999999998
100
AcDbArc
 50
139.434788
 51
154.999996
  0
LINE
  5
C7
330
1F
100
AcDbEntity
  8
0
 62
     7
370
    35
100
AcDbLine
 10
2.271073
 20
7.559208
 30
0.0
 11
2.260153
 21
7.546452
 31
0.0
  0
ARC
  5
C8
330
1F
100
AcDbEntity
  8
0
 62
     7
370
    35
100
AcDbCircle
 10
2.190711
 20
7.628003
 30
0.0
 40
0.1057863607685339
100
AcDbArc
 50
319.434783
 51
350.246081
  0
ARC
  5
C9
330
1F
100
AcDbEntity
  8
0
 62
     7
370
    35
100
AcDbCircle
 10
1.480595
 20
7.056978
 30
0.0
 40
0.9844425402729382
100
AcDbArc
 50
34.183399
 51
36.251383
  0
ARC
  5
CA
330
1F
100
AcDbEntity
  8
0
 62
     7
370
    35
100
AcDbCircle
 10
2.098749
 20
7.72647
 30
0.0
 40
0.1057863607685339
100
AcDbArc
 50
95.840873
 51
126.65217
  0
LINE
  5
CB
330
1F
100
AcDbEntity
  8
0
 62
     7
370
    35
100
AcDbLine
 10
2.022126
 20
7.801316
 30
0.0
 11
2.035599
 21
7.811341
 31
0.0
  0
ARC
  5
CC
330
1F
100
AcDbEntity
  8
0
 62
     7
370
    35
100
AcDbCircle
 10
1.920151
 20
7.938365
 30
0.0
 40
0.1708249999999997
100
AcDbArc
 50
291.086957
 51
306.652172
  0
ARC
  5
CD
330
1F
100
AcDbEntity
  8
0
 62
     7
370
    35
100
AcDbCircle
 10
2.254116
 20
7.666664
 30
0.0
 40
0.1708249999999998
100
AcDbArc
 50
155.086958
 51
170.652181
  0
LINE
  5
CE
330
1F
100
AcDbEntity
  8
0
 62
     7
370
    35
100
AcDbLine
 10
2.10626
 20
7.753853
 30
0.0
 11
2.099186
 21
7.738623
 31
0.0
  0
ARC
  5
CF
330
1F
100
AcDbEntity
  8
0
 62
     7
370
    35
100
AcDbCircle
 10
2.010317
 20
7.798415
 30
0.0
 40
0.1057863607685339
100
AcDbArc
 50
335.086957
 51
5.898255
  0
ARC
  5
D0
330
1F
100
AcDbEntity
  8
0
 62
     7
370
    35
100
AcDbCircle
 10
1.480595
 20
7.056978
 30
0.0
 40
0.9844425402729382
100
AcDbArc
 50
49.835577
 51
51.903553
  0
ARC
  5
D1
330
1F
100
AcDbEntity
  8
0
 62
     7
370
    35
100
AcDbCircle
 10
1.895199
 20
7.86842
 30
0.0
 40
0.1057863607685339
100
AcDbArc
 50
111.493051
 51
142.304355
  0
LINE
  5
D2
330
1F
100
AcDbEntity
  8
0
 62
     7
370
    35
100
AcDbLine
 10
1.801225
 20
7.919817
 30
0.0
 11
1.811493
 21
7.933105
 31
0.0
  0
ARC
  5
D3
330
1F
100
AcDbEntity
  8
0
 62
     7
370
    35
100
AcDbCircle
 10
1.666056
 20
8.024271
 30
0.0
 40
0.1708249999999997
100
AcDbArc
 50
306.739131
 51
322.30435
  0
ARC
  5
D4
330
1F
100
AcDbEntity
  8
0
 62
     7
370
    35
100
AcDbCircle
 10
2.06094
 20
7.852749
 30
0.0
 40
0.1708249999999997
100
AcDbArc
 50
170.739129
 51
186.304342
  0
LINE
  5
D5
330
1F
100
AcDbEntity
  8
0
 62
     7
370
    35
100
AcDbLine
 10
1.895044
 20
7.896814
 30
0.0
 11
1.892342
 21
7.88024
 31
0.0
  0
ARC
  5
D6
330
1F
100
AcDbEntity
  8
0
 62
     7
370
    35
100
AcDbCircle
 10
1.790637
 20
7.913838
 30
0.0
 40
0.1057863607685339
100
AcDbArc
 50
350.739131
 51
21.550428
  0
ARC
  5
D7
330
1F
100
AcDbEntity
  8
0
 62
     7
370
    35
100
AcDbCircle
 10
1.480595
 20
7.056978
 30
0.0
 40
0.9844425402729379
100
AcDbArc
 50
65.487751
 51
67.555728
  0
ARC
  5
D8
330
1F
100
AcDbEntity
  8
0
 62
     7
370
    35
100
AcDbCircle
 10
1.6609
 20
7.950188
 30
0.0
 40
0.1057863607685339
100
AcDbArc
 50
127.145228
 51
157.956526
  0
LINE
  5
D9
330
1F
100
AcDbEntity
  8
0
 62
     7
370
    35
100
AcDbLine
 10
1.556544
 20
7.974326
 30
0.0
 11
1.562846
 21
7.989891
 31
0.0
  0
ARC
  5
DA
330
1F
100
AcDbEntity
  8
0
 62
     7
370
    35
100
AcDbCircle
 10
1.398206
 20
8.038438
 30
0.0
 40
0.1708249999999997
100
AcDbArc
 50
322.391305
 51
337.956522
  0
ARC
  5
DB
330
1F
100
AcDbEntity
  8
0
 62
     7
370
    35
100
AcDbCircle
 10
1.824723
 20
7.979815
 30
0.0
 40
0.1708249999999997
100
AcDbArc
 50
186.391304
 51
201.956526
  0
LINE
  5
DC
330
1F
100
AcDbEntity
  8
0
 62
     7
370
    35
100
AcDbLine
 10
1.65309
 20
7.977487
 30
0.0
 11
1.65496
 21
7.960799
 31
0.0
  0
ARC
  5
DD
330
1F
100
AcDbEntity
  8
0
 62
     7
370
    35
100
AcDbCircle
 10
1.547961
 20
7.965711
 30
0.0
 40
0.1057863607685339
100
AcDbArc
 50
6.391304
 51
37.202603
  0
ARC
  5
DE
330
1F
100
AcDbEntity
  8
0
 62
     7
370
    35
100
AcDbCircle
 10
1.480595
 20
7.056978
 30
0.0
 40
0.9844425402729379
100
AcDbArc
 50
81.139922
 51
83.207905
  0
ARC
  5
DF
330
1F
100
AcDbEntity
  8
0
 62
     7
370
    35
100
AcDbCircle
 10
1.413228
 20
7.965711
 30
0.0
 40
0.1057863607685339
100
AcDbArc
 50
142.797399
 51
173.608696
  0
LINE
  5
E0
330
1F
100
AcDbEntity
  8
0
 62
     7
370
    35
100
AcDbLine
 10
1.30623
 20
7.960799
 30
0.0
 11
1.308099
 21
7.977487
 31
0.0
  0
ARC
  5
E1
330
1F
100
AcDbEntity
  8
0
 62
     7
370
    35
100
AcDbCircle
 10
1.136466
 20
7.979815
 30
0.0
 40
0.1708249999999997
100
AcDbArc
 50
338.043478
 51
353.608696
  0
ARC
  5
E2
330
1F
100
AcDbEntity
  8
0
 62
     7
370
    35
100
AcDbCircle
 10
1.562983
 20
8.038438
 30
0.0
 40
0.1708249999999997
100
AcDbArc
 50
202.043474
 51
217.608697
  0
LINE
  5
E3
330
1F
100
AcDbEntity
  8
0
 62
     7
370
    35
100
AcDbLine
 10
1.398343
 20
7.989891
 30
0.0
 11
1.404646
 21
7.974326
 31
0.0
  0
ARC
  5
E4
330
1F
100
AcDbEntity
  8
0
 62
     7
370
    35
100
AcDbCircle
 10
1.30029
 20
7.950188
 30
0.0
 40
0.1057863607685339
100
AcDbArc
 50
22.043478
 51
52.854777
  0
ARC
  5
E5
330
1F
100
AcDbEntity
  8
0
 62
     7
370
    35
100
AcDbCircle
 10
1.480595
 20
7.056978
 30
0.0
 40
0.9844425402729379
100
AcDbArc
 50
96.7921
 51
98.860076
  0
ARC
  5
E6
330
1F
100
AcDbEntity
  8
0
 62
     7
370
    35
100
AcDbCircle
 10
1.170553
 20
7.913838
 30
0.0
 40
0.1057863607685339
100
AcDbArc
 50
158.44957
 51
189.260871
  0
LINE
  5
E7
330
1F
100
AcDbEntity
  8
0
 62
     7
370
    35
100
AcDbLine
 10
1.068848
 20
7.88024
 30
0.0
 11
1.066145
 21
7.896814
 31
0.0
  0
ARC
  5
E8
330
1F
100
AcDbEntity
  8
0
 62
     7
370
    35
100
AcDbCircle
 10
0.900249
 20
7.852749
 30
0.0
 40
0.1708249999999997
100
AcDbArc
 50
353.695652
 51
9.260869
  0
ARC
  5
E9
330
1F
100
AcDbEntity
  8
0
 62
     7
370
    35
100
AcDbCircle
 10
1.295133
 20
8.024271
 30
0.0
 40
0.1708249999999997
100
AcDbArc
 50
217.695645
 51
233.260868
  0
LINE
  5
EA
330
1F
100
AcDbEntity
  8
0
 62
     7
370
    35
100
AcDbLine
 10
1.149696
 20
7.933105
 30
0.0
 11
1.159964
 21
7.919817
 31
0.0
  0
ARC
  5
EB
330
1F
100
AcDbEntity
  8
0
 62
     7
370
    35
100
AcDbCircle
 10
1.065991
 20
7.86842
 30
0.0
 40
0.1057863607685339
100
AcDbArc
 50
37.69565
 51
68.506948
  0
ARC
  5
EC
330
1F
100
AcDbEntity
  8
0
 62
     7
370
    35
100
AcDbCircle
 10
1.480595
 20
7.056978
 30
0.0
 40
0.9844425402729382
100
AcDbArc
 50
112.44427
 51
114.512247
  0
ARC
  5
ED
330
1F
100
AcDbEntity
  8
0
 62
     7
370
    35
100
AcDbCircle
 10
0.950872
 20
7.798415
 30
0.0
 40
0.1057863607685339
100
AcDbArc
 50
174.101741
 51
204.913042
  0
LINE
  5
EE
330
1F
100
AcDbEntity
  8
0
 62
     7
370
    35
100
AcDbLine
 10
0.862003
 20
7.738623
 30
0.0
 11
0.854929
 21
7.753853
 31
0.0
  0
ARC
  5
EF
330
1F
100
AcDbEntity
  8
0
 62
     7
370
    35
100
AcDbCircle
 10
0.707074
 20
7.666664
 30
0.0
 40
0.1708249999999997
100
AcDbArc
 50
9.347826
 51
24.913043
  0
ARC
  5
F0
330
1F
100
AcDbEntity
  8
0
 62
     7
370
    35
100
AcDbCircle
 10
0.809693
 20
7.683557
 30
0.0
 40
0.0668249999999998
100
AcDbArc
 50
0.0
 51
9.347826
  0
ARC
  5
F1
330
1F
100
AcDbEntity
  8
0
 62
     7
370
    35
100
AcDbCircle
 10
1.041038
 20
7.938365
 30
0.0
 40
0.1708249999999997
100
AcDbArc
 50
233.34783
 51
248.913045
  0
LINE
  5
F2
330
1F
100
AcDbEntity
  8
0
 62
     7
370
    35
100
AcDbLine
 10
0.925591
 20
7.811341
 30
0.0
 11
0.939063
 21
7.801316
 31
0.0
  0
ARC
  5
F3
330
1F
100
AcDbEntity
  8
0
 62
     7
370
    35
100
AcDbCircle
 10
0.862441
 20
7.72647
 30
0.0
 40
0.1057863607685339
100
AcDbArc
 50
53.347828
 51
84.159125
  0
ARC
  5
F4
330
1F
100
AcDbEntity
  8
0
 62
     7
370
    35
100
AcDbCircle
 10
1.480595
 20
7.056978
 30
0.0
 40
0.9844425402729379
100
AcDbArc
 50
128.096441
 51
130.164418
  0
ARC
  5
F5
330
1F
100
AcDbEntity
  8
0
 62
     7
370
    35
100
AcDbCircle
 10
0.770478
 20
7.628003
 30
0.0
 40
0.1057863607685339
100
AcDbArc
 50
189.753915
 51
220.565212
  0
LINE
  5
F6
330
1F
100
AcDbEntity
  8
0
 62
     7
370
    35
100
AcDbLine
 10
0.701036
 20
7.546452
 30
0.0
 11
0.690116
 21
7.559208
 31
0.0
  0
ARC
  5
F7
330
1F
100
AcDbEntity
  8
0
 62
     7
370
    35
100
AcDbCircle
 10
0.571266
 20
7.435362
 30
0.0
 40
0.1708249999999998
100
AcDbArc
 50
25.0
 51
40.565217
  0
ARC
  5
F8
330
1F
100
AcDbEntity
  8
0
 62
     7
370
    35
100
AcDbCircle
 10
0.819543
 20
7.787089
 30
0.0
 40
0.1708249999999997
100
AcDbArc
 50
249.0
 51
264.565216
  0
LINE
  5
F9
330
1F
100
AcDbEntity
  8
0
 62
     7
370
    35
100
AcDbLine
 10
0.742647
 20
7.633629
 30
0.0
 11
0.758324
 21
7.62761
 31
0.0
  0
ARC
  5
FA
330
1F
100
AcDbEntity
  8
0
 62
     7
370
    35
100
AcDbCircle
 10
0.704737
 20
7.534868
 30
0.0
 40
0.1057863607685339
100
AcDbArc
 50
68.999999
 51
99.811296
  0
ARC
  5
FB
330
1F
100
AcDbEntity
  8
0
 62
     7
370
    35
100
AcDbCircle
 10
1.480595
 20
7.056978
 30
0.0
 40
0.984442540272938
100
AcDbArc
 50
143.748612
 51
145.816602
  0
ARC
  5
FC
330
1F
100
AcDbEntity
  8
0
 62
     7
370
    35
100
AcDbCircle
 10
0.642751
 20
7.41524
 30
0.0
 40
0.1057863607685339
100
AcDbArc
 50
205.406099
 51
236.217397
  0
LINE
  5
FD
330
1F
100
AcDbEntity
  8
0
 62
     7
370
    35
100
AcDbLine
 10
0.597886
 20
7.317978
 30
0.0
 11
0.583929
 21
7.327316
 31
0.0
  0
ARC
  5
FE
330
1F
100
AcDbEntity
  8
0
 62
     7
370
    35
100
AcDbCircle
 10
0.5029
 20
7.175996
 30
0.0
 40
0.1708249999999998
100
AcDbArc
 50
40.652176
 51
56.217392
  0
ARC
  5
FF
330
1F
100
AcDbEntity
  8
0
 62
     7
370
    35
100
AcDbCircle
 10
0.647075
 20
7.581665
 30
0.0
 40
0.1708249999999997
100
AcDbArc
 50
264.652171
 51
280.217394
  0
LINE
  5
100
330
1F
100
AcDbEntity
  8
0
 62
     7
370
    35
100
AcDbLine
 10
0.614434
 20
7.413149
 30
0.0
 11
0.631153
 21
7.411584
 31
0.0
  0
ARC
  5
101
330
1F
100
AcDbEntity
  8
0
 62
     7
370
    35
100
AcDbCircle
 10
0.604574
 20
7.307823
 30
0.0
 40
0.1057863607685339
100
AcDbArc
 50
84.652176
 51
115.463474
  0
ARC
  5
102
330
1F
100
AcDbEntity
  8
0
 62
     7
370
    35
100
AcDbCircle
 10
1.480595
 20
7.056978
 30
0.0
 40
0.9844425402729379
100
AcDbArc
 50
159.400797
 51
161.468773
  0
ARC
  5
103
330
1F
100
AcDbEntity
  8
0
 62
     7
370
    35
100
AcDbCircle
 10
0.536425
 20
7.337327
 30
0.0
 40
0.1708249999999997
100
AcDbArc
 50
280.304349
 51
295.869564
  0
LINE
  5
104
330
1F
100
AcDbEntity
  8
0
 62
     7
370
    35
100
AcDbLine
 10
0.55046
 20
7.166254
 30
0.0
 11
0.566982
 21
7.169257
 31
0.0
  0
ARC
  5
105
330
1F
100
AcDbEntity
  8
0
 62
     7
370
    35
100
AcDbCircle
 10
0.569382
 20
7.062173
 30
0.0
 40
0.1057863607685339
100
AcDbArc
 50
100.304347
 51
131.115644
  0
ARC
  5
106
330
1F
100
AcDbEntity
  8
0
 62
     7
370
    35
100
AcDbCircle
 10
1.480595
 20
7.056978
 30
0.0
 40
0.9844425402729382
100
AcDbArc
 50
175.052967
 51
177.120944
  0
ARC
  5
107
330
1F
100
AcDbEntity
  8
0
 62
     7
370
    35
100
AcDbCircle
 10
0.577162
 20
7.175908
 30
0.0
 40
0.1057863607685339
100
AcDbArc
 50
221.05827
 51
251.869568
  0
LINE
  5
108
330
1F
100
AcDbEntity
  8
0
 62
     7
370
    35
100
AcDbLine
 10
0.560202
 20
7.070148
 30
0.0
 11
0.544243
 21
7.075373
 31
0.0
  0
ARC
  5
109
330
1F
100
AcDbEntity
  8
0
 62
     7
370
    35
100
AcDbCircle
 10
0.507045
 20
6.907804
 30
0.0
 40
0.1708249999999997
100
AcDbArc
 50
56.304347
 51
71.869566
  0
ARC
  5
10A
330
1F
100
AcDbEntity
  8
0
 62
     7
370
    35
100
AcDbCircle
 10
0.578577
 20
6.927754
 30
0.0
 40
0.1057863607685339
100
AcDbArc
 50
236.710441
 51
267.521738
  0
LINE
  5
10B
330
1F
100
AcDbEntity
  8
0
 62
     7
370
    35
100
AcDbLine
 10
0.59078
 20
6.821341
 30
0.0
 11
0.574003
 21
6.822066
 31
0.0
  0
ARC
  5
10C
330
1F
100
AcDbEntity
  8
0
 62
     7
370
    35
100
AcDbCircle
 10
0.583393
 20
6.650675
 30
0.0
 40
0.1708249999999997
100
AcDbArc
 50
71.956521
 51
87.521737
  0
ARC
  5
10D
330
1F
100
AcDbEntity
  8
0
 62
     7
370
    35
100
AcDbCircle
 10
0.4958
 20
7.072197
 30
0.0
 40
0.1708249999999998
100
AcDbArc
 50
295.95652
 51
311.521739
  0
LINE
  5
10E
330
1F
100
AcDbEntity
  8
0
 62
     7
370
    35
100
AcDbLine
 10
0.555469
 20
6.911254
 30
0.0
 11
0.570568
 21
6.918604
 31
0.0
  0
ARC
  5
10F
330
1F
100
AcDbEntity
  8
0
 62
     7
370
    35
100
AcDbCircle
 10
0.601771
 20
6.816138
 30
0.0
 40
0.1057863607685339
100
AcDbArc
 50
115.956518
 51
146.767815
  0
ARC
  5
110
330
1F
100
AcDbEntity
  8
0
 62
     7
370
    35
100
AcDbCircle
 10
1.480595
 20
7.056978
 30
0.0
 40
0.9844425402729379
100
AcDbArc
 50
190.705142
 51
192.773118
  0
ARC
  5
111
330
1F
100
AcDbEntity
  8
0
 62
     7
370
    35
100
AcDbCircle
 10
0.64689
 20
6.689185
 30
0.0
 40
0.1057863607685339
100
AcDbArc
 50
252.362612
 51
283.173916
  0
LINE
  5
112
330
1F
100
AcDbEntity
  8
0
 62
     7
370
    35
100
AcDbLine
 10
0.687351
 20
6.59001
 30
0.0
 11
0.671
 21
6.586182
 31
0.0
  0
ARC
  5
113
330
1F
100
AcDbEntity
  8
0
 62
     7
370
    35
100
AcDbCircle
 10
0.726283
 20
6.42368
 30
0.0
 40
0.1708249999999997
100
AcDbArc
 50
87.608699
 51
103.173914
  0
ARC
  5
114
330
1F
100
AcDbEntity
  8
0
 62
     7
370
    35
100
AcDbCircle
 10
0.528213
 20
6.805938
 30
0.0
 40
0.1708249999999998
100
AcDbArc
 50
311.608697
 51
327.173913
  0
LINE
  5
115
330
1F
100
AcDbEntity
  8
0
 62
     7
370
    35
100
AcDbLine
 10
0.629091
 20
6.667062
 30
0.0
 11
0.641647
 21
6.678213
 31
0.0
  0
ARC
  5
116
330
1F
100
AcDbEntity
  8
0
 62
     7
370
    35
100
AcDbCircle
 10
0.699338
 20
6.587966
 30
0.0
 40
0.1057863607685339
100
AcDbArc
 50
131.608702
 51
162.42
  0
ARC
  5
117
330
1F
100
AcDbEntity
  8
0
 62
     7
370
    35
100
AcDbCircle
 10
1.480595
 20
7.056978
 30
0.0
 40
0.9844425402729379
100
AcDbArc
 50
206.357313
 51
208.425289
  0
ARC
  5
118
330
1F
100
AcDbEntity
  8
0
 62
     7
370
    35
100
AcDbCircle
 10
0.777036
 20
6.477892
 30
0.0
 40
0.1057863607685339
100
AcDbArc
 50
268.014789
 51
298.826087
  0
LINE
  5
119
330
1F
100
AcDbEntity
  8
0
 62
     7
370
    35
100
AcDbLine
 10
0.842753
 20
6.393311
 30
0.0
 11
0.828041
 21
6.385214
 31
0.0
  0
ARC
  5
11A
330
1F
100
AcDbEntity
  8
0
 62
     7
370
    35
100
AcDbCircle
 10
0.925117
 20
6.243654
 30
0.0
 40
0.1708249999999997
100
AcDbArc
 50
103.260869
 51
118.826085
  0
ARC
  5
11B
330
1F
100
AcDbEntity
  8
0
 62
     7
370
    35
100
AcDbCircle
 10
0.631259
 20
6.558298
 30
0.0
 40
0.1708249999999997
100
AcDbArc
 50
327.260868
 51
342.826089
  0
LINE
  5
11C
330
1F
100
AcDbEntity
  8
0
 62
     7
370
    35
100
AcDbLine
 10
0.765866
 20
6.451788
 30
0.0
 11
0.774947
 21
6.465913
 31
0.0
  0
ARC
  5
11D
330
1F
100
AcDbEntity
  8
0
 62
     7
370
    35
100
AcDbCircle
 10
0.854847
 20
6.394578
 30
0.0
 40
0.1057863607685339
100
AcDbArc
 50
147.260873
 51
178.07217
  0
ARC
  5
11E
330
1F
100
AcDbEntity
  8
0
 62
     7
370
    35
100
AcDbCircle
 10
1.480595
 20
7.056978
 30
0.0
 40
0.9844425402729379
100
AcDbArc
 50
222.009497
 51
224.07746
  0
ARC
  5
11F
330
1F
100
AcDbEntity
  8
0
 62
     7
370
    35
100
AcDbCircle
 10
0.959361
 20
6.309549
 30
0.0
 40
0.1057863607685339
100
AcDbArc
 50
283.66696
 51
314.478261
  0
LINE
  5
120
330
1F
100
AcDbEntity
  8
0
 62
     7
370
    35
100
AcDbLine
 10
1.045461
 20
6.245834
 30
0.0
 11
1.033479
 21
6.234068
 31
0.0
  0
ARC
  5
121
330
1F
100
AcDbEntity
  8
0
 62
     7
370
    35
100
AcDbCircle
 10
1.165147
 20
6.123948
 30
0.0
 40
0.1708249999999997
100
AcDbArc
 50
118.913047
 51
134.478256
  0
LINE
  5
122
330
1F
100
AcDbEntity
  8
0
 62
     7
370
    35
100
AcDbLine
 10
0.968062
 20
6.343106
 30
0.0
 11
0.968086
 21
6.344881
 31
0.0
  0
ARC
  5
123
330
1F
100
AcDbEntity
  8
0
 62
     7
370
    35
100
AcDbCircle
 10
0.797297
 20
6.347642
 30
0.0
 40
0.1708249999999997
100
AcDbArc
 50
342.913042
 51
358.478261
  0
LINE
  5
124
330
1F
100
AcDbEntity
  8
0
 62
     7
370
    35
100
AcDbLine
 10
0.955648
 20
6.281399
 30
0.0
 11
0.960582
 21
6.29745
 31
0.0
  0
ARC
  5
125
330
1F
100
AcDbEntity
  8
0
 62
     7
370
    35
100
AcDbCircle
 10
1.056765
 20
6.250316
 30
0.0
 40
0.1057863607685339
100
AcDbArc
 50
162.913044
 51
193.724345
  0
ARC
  5
126
330
1F
100
AcDbEntity
  8
0
 62
     7
370
    35
100
AcDbCircle
 10
1.480595
 20
7.056978
 30
0.0
 40
0.9844425402729379
100
AcDbArc
 50
237.661668
 51
239.729644
  0
ARC
  5
127
330
1F
100
AcDbEntity
  8
0
 62
     7
370
    35
100
AcDbCircle
 10
1.180344
 20
6.196638
 30
0.0
 40
0.1057863607685339
100
AcDbArc
 50
299.319138
 51
330.130435
  0
LINE
  5
128
330
1F
100
AcDbEntity
  8
0
 62
     7
370
    35
100
AcDbLine
 10
1.280441
 20
6.158516
 30
0.0
 11
1.272078
 21
6.143954
 31
0.0
  0
ARC
  5
129
330
1F
100
AcDbEntity
  8
0
 62
     7
370
    35
100
AcDbCircle
 10
1.428574
 20
6.07344
 30
0.0
 40
0.1708249999999997
100
AcDbArc
 50
134.565218
 51
150.13044
  0
ARC
  5
12A
330
1F
100
AcDbEntity
  8
0
 62
     7
370
    35
100
AcDbCircle
 10
1.014012
 20
6.189595
 30
0.0
 40
0.1708249999999997
100
AcDbArc
 50
360.0
 51
14.130435
  0
LINE
  5
12B
330
1F
100
AcDbEntity
  8
0
 62
     7
370
    35
100
AcDbLine
 10
1.184784
 20
6.185318
 30
0.0
 11
1.184837
 21
6.189595
 31
0.0
  0
LINE
  5
12C
330
1F
100
AcDbEntity
  8
0
 62
     7
370
    35
100
AcDbLine
 10
1.184363
 20
6.16853
 30
0.0
 11
1.184784
 21
6.185318
 31
0.0
  0
LINE
  5
12D
330
1F
100
AcDbEntity
  8
0
 62
     7
370
    35
100
AcDbLine
 10
1.184329
 20
6.165881
 30
0.0
 11
1.184363
 21
6.16853
 31
0.0
  0
ARC
  5
12E
330
1F
100
AcDbEntity
  8
0
 62
     7
370
    35
100
AcDbCircle
 10
1.290116
 20
6.165881
 30
0.0
 40
0.1057863607685339
100
AcDbArc
 50
180.000005
 51
209.376516
  0
ARC
  5
12F
330
1F
100
AcDbEntity
  8
0
 62
     7
370
    35
100
AcDbCircle
 10
1.480595
 20
7.056978
 30
0.0
 40
0.9844425402729379
100
AcDbArc
 50
253.313839
 51
255.381815
  0
ENDSEC
  0
SECTION
  2
OBJECTS
  0
DICTIONARY
  5
C
330
0
100
AcDbDictionary
281
     1
  3
ACAD_GROUP
350
D
  3
ACAD_LAYOUT
350
1A
  3
ACAD_MLINESTYLE
350
17
  3
ACAD_PLOTSETTINGS
350
19
  3
ACAD_PLOTSTYLENAME
350
E
  3
ACAD_SCALELIST
350
47
  0
DICTIONARY
  5
D
102
{ACAD_REACTORS
330
C
102
}
330
C
100
AcDbDictionary
281
     1
  0
DICTIONARY
  5
1A
102
{ACAD_REACTORS
330
C
102
}
330
C
100
AcDbDictionary
281
     1
  3
Layout1
350
1E
  3
Layout2
350
26
  3
Model
350
22
  0
DICTIONARY
  5
17
102
{ACAD_REACTORS
330
C
102
}
330
C
100
AcDbDictionary
281
     1
  3
Standard
350
18
  0
DICTIONARY
  5
19
102
{ACAD_REACTORS
330
C
102
}
330
C
100
AcDbDictionary
281
     1
  0
ACDBDICTIONARYWDFLT
  5
E
102
{ACAD_REACTORS
330
C
102
}
330
C
100
AcDbDictionary
281
     1
  3
Normal
350
F
100
AcDbDictionaryWithDefault
340
F
  0
DICTIONARY
  5
47
102
{ACAD_REACTORS
330
C
102
}
330
C
100
AcDbDictionary
281
     1
  3
A0
350
48
  3
A1
350
49
  3
A2
350
4A
  3
A3
350
4B
  3
A4
350
4C
  3
A5
350
4D
  3
A6
350
4E
  3
A7
350
4F
  3
A8
350
50
  3
A9
350
51
  3
B0
350
52
  3
B1
350
53
  3
B2
350
54
  3
B3
350
55
  3
B4
350
56
  3
B5
350
57
  3
B6
350
58
  3
B7
350
59
  3
B8
350
5A
  3
B9
350
5B
  3
C0
350
5C
  3
C1
350
5D
  3
C2
350
5E
  3
C3
350
5F
  3
C4
350
60
  3
C5
350
61
  3
C6
350
62
  3
C7
350
63
  3
C8
350
64
  3
C9
350
65
  3
D0
350
66
  3
D1
350
67
  3
D2
350
68
  0
LAYOUT
  5
1E
102
{ACAD_REACTORS
330
1A
102
}
330
1A
100
AcDbPlotSettings
  1

  2
none_device
  4

  6

 40
0.0
 41
0.0
 42
0.0
 43
0.0
 44
0.0
 45
0.0
 46
0.0
 47
0.0
 48
0.0
 49
0.0
140
0.0
141
0.0
142
1.0
143
1.0
 70
  4784
 72
     0
 73
     0
 74
     5
  7

 75
    16
147
1.0
148
0.0
149
0.0
100
AcDbLayout
  1
Layout1
 70
     1
 71
     1
 10
0.0
 20
0.0
 11
12.0
 21
9.0
 12
0.0
 22
0.0
 32
0.0
 14
0.0
 24
0.0
 34
0.0
 15
2.463795
 25
8.034512
 35
2.0
146
0.0
 13
0.0
 23
0.0
 33
0.0
 16
1.0
 26
0.0
 36
0.0
 17
0.0
 27
1.0
 37
0.0
 76
     0
330
1B
  0
LAYOUT
  5
26
102
{ACAD_REACTORS
330
1A
102
}
330
1A
100
AcDbPlotSettings
  1

  2
none_device
  4

  6

 40
0.0
 41
0.0
 42
0.0
 43
0.0
 44
0.0
 45
0.0
 46
0.0
 47
0.0
 48
0.0
 49
0.0
140
0.0
141
0.0
142
1.0
143
1.0
 70
  4784
 72
     0
 73
     0
 74
     5
  7

 75
    16
147
1.0
148
0.0
149
0.0
100
AcDbLayout
  1
Layout2
 70
     1
 71
     2
 10
0.0
 20
0.0
 11
0.0
 21
0.0
 12
0.0
 22
0.0
 32
0.0
 14
0.0
 24
0.0
 34
0.0
 15
0.0
 25
0.0
 35
0.0
146
0.0
 13
0.0
 23
0.0
 33
0.0
 16
1.0
 26
0.0
 36
0.0
 17
0.0
 27
1.0
 37
0.0
 76
     0
330
23
  0
LAYOUT
  5
22
102
{ACAD_REACTORS
330
1A
102
}
330
1A
100
AcDbPlotSettings
  1

  2
none_device
  4
Letter_(8.50_x_11.00_Inches)
  6

 40
6.35
 41
6.35
 42
6.350005
 43
6.350005
 44
215.9
 45
279.4
 46
0.0
 47
0.0
 48
0.0
 49
0.0
140
0.0
141
0.0
142
1.0
143
1.0
 70
  5808
 72
     0
 73
     0
 74
     0
  7

 75
     0
147
1.0
148
0.0
149
0.0
100
AcDbLayout
  1
Model
 70
     1
 71
     0
 10
0.0
 20
0.0
 11
17.0
 21
11.0
 12
0.0
 22
0.0
 32
0.0
 14
0.0
 24
0.0
 34
0.0
 15
2.463795
 25
8.034512
 35
2.0
146
0.0
 13
0.0
 23
0.0
 33
0.0
 16
1.0
 26
0.0
 36
0.0
 17
0.0
 27
1.0
 37
0.0
 76
     0
330
1F
331
29
  0
MLINESTYLE
  5
18
102
{ACAD_REACTORS
330
17
102
}
330
17
100
AcDbMlineStyle
  2
Standard
 70
     0
  3

 62
   256
 51
90.0
 52
90.0
 71
     2
 49
0.5
 62
   256
  6
BYLAYER
 49
-0.5
 62
   256
  6
BYLAYER
  0
ACDBPLACEHOLDER
  5
F
102
{ACAD_REACTORS
330
E
102
}
330
E
  0
SCALE
  5
48
102
{ACAD_REACTORS
330
47
102
}
330
47
100
AcDbScale
 70
     0
300
1:1
140
1.0
141
1.0
290
     1
  0
SCALE
  5
49
102
{ACAD_REACTORS
330
47
102
}
330
47
100
AcDbScale
 70
     0
300
1:2
140
1.0
141
2.0
290
     0
  0
SCALE
  5
4A
102
{ACAD_REACTORS
330
47
102
}
330
47
100
AcDbScale
 70
     0
300
1:4
140
1.0
141
4.0
290
     0
  0
SCALE
  5
4B
102
{ACAD_REACTORS
330
47
102
}
330
47
100
AcDbScale
 70
     0
300
1:5
140
1.0
141
5.0
290
     0
  0
SCALE
  5
4C
102
{ACAD_REACTORS
330
47
102
}
330
47
100
AcDbScale
 70
     0
300
1:8
140
1.0
141
8.0
290
     0
  0
SCALE
  5
4D
102
{ACAD_REACTORS
330
47
102
}
330
47
100
AcDbScale
 70
     0
300
1:10
140
1.0
141
10.0
290
     0
  0
SCALE
  5
4E
102
{ACAD_REACTORS
330
47
102
}
330
47
100
AcDbScale
 70
     0
300
1:16
140
1.0
141
16.0
290
     0
  0
SCALE
  5
4F
102
{ACAD_REACTORS
330
47
102
}
330
47
100
AcDbScale
 70
     0
300
1:20
140
1.0
141
20.0
290
     0
  0
SCALE
  5
50
102
{ACAD_REACTORS
330
47
102
}
330
47
100
AcDbScale
 70
     0
300
1:30
140
1.0
141
30.0
290
     0
  0
SCALE
  5
51
102
{ACAD_REACTORS
330
47
102
}
330
47
100
AcDbScale
 70
     0
300
1:40
140
1.0
141
40.0
290
     0
  0
SCALE
  5
52
102
{ACAD_REACTORS
330
47
102
}
330
47
100
AcDbScale
 70
     0
300
1:50
140
1.0
141
50.0
290
     0
  0
SCALE
  5
53
102
{ACAD_REACTORS
330
47
102
}
330
47
100
AcDbScale
 70
     0
300
1:100
140
1.0
141
100.0
290
     0
  0
SCALE
  5
54
102
{ACAD_REACTORS
330
47
102
}
330
47
100
AcDbScale
 70
     0
300
2:1
140
2.0
141
1.0
290
     0
  0
SCALE
  5
55
102
{ACAD_REACTORS
330
47
102
}
330
47
100
AcDbScale
 70
     0
300
4:1
140
4.0
141
1.0
290
     0
  0
SCALE
  5
56
102
{ACAD_REACTORS
330
47
102
}
330
47
100
AcDbScale
 70
     0
300
8:1
140
8.0
141
1.0
290
     0
  0
SCALE
  5
57
102
{ACAD_REACTORS
330
47
102
}
330
47
100
AcDbScale
 70
     0
300
10:1
140
10.0
141
1.0
290
     0
  0
SCALE
  5
58
102
{ACAD_REACTORS
330
47
102
}
330
47
100
AcDbScale
 70
     0
300
100:1
140
100.0
141
1.0
290
     0
  0
SCALE
  5
59
102
{ACAD_REACTORS
330
47
102
}
330
47
100
AcDbScale
 70
     0
300
1/128" = 1'-0"
140
0.007812
141
12.0
290
     0
  0
SCALE
  5
5A
102
{ACAD_REACTORS
330
47
102
}
330
47
100
AcDbScale
 70
     0
300
1/64" = 1'-0"
140
0.015625
141
12.0
290
     0
  0
SCALE
  5
5B
102
{ACAD_REACTORS
330
47
102
}
330
47
100
AcDbScale
 70
     0
300
1/32" = 1'-0"
140
0.03125
141
12.0
290
     0
  0
SCALE
  5
5C
102
{ACAD_REACTORS
330
47
102
}
330
47
100
AcDbScale
 70
     0
300
1/16" = 1'-0"
140
0.0625
141
12.0
290
     0
  0
SCALE
  5
5D
102
{ACAD_REACTORS
330
47
102
}
330
47
100
AcDbScale
 70
     0
300
3/32" = 1'-0"
140
0.09375
141
12.0
290
     0
  0
SCALE
  5
5E
102
{ACAD_REACTORS
330
47
102
}
330
47
100
AcDbScale
 70
     0
300
1/8" = 1'-0"
140
0.125
141
12.0
290
     0
  0
SCALE
  5
5F
102
{ACAD_REACTORS
330
47
102
}
330
47
100
AcDbScale
 70
     0
300
3/16" = 1'-0"
140
0.1875
141
12.0
290
     0
  0
SCALE
  5
60
102
{ACAD_REACTORS
330
47
102
}
330
47
100
AcDbScale
 70
     0
300
1/4" = 1'-0"
140
0.25
141
12.0
290
     0
  0
SCALE
  5
61
102
{ACAD_REACTORS
330
47
102
}
330
47
100
AcDbScale
 70
     0
300
3/8" = 1'-0"
140
0.375
141
12.0
290
     0
  0
SCALE
  5
62
102
{ACAD_REACTORS
330
47
102
}
330
47
100
AcDbScale
 70
     0
300
1/2" = 1'-0"
140
0.5
141
12.0
290
     0
  0
SCALE
  5
63
102
{ACAD_REACTORS
330
47
102
}
330
47
100
AcDbScale
 70
     0
300
3/4" = 1'-0"
140
0.75
141
12.0
290
     0
  0
SCALE
  5
64
102
{ACAD_REACTORS
330
47
102
}
330
47
100
AcDbScale
 70
     0
300
1" = 1'-0"
140
1.0
141
12.0
290
     0
  0
SCALE
  5
65
102
{ACAD_REACTORS
330
47
102
}
330
47
100
AcDbScale
 70
     0
300
1-1/2" = 1'-0"
140
1.5
141
12.0
290
     0
  0
SCALE
  5
66
102
{ACAD_REACTORS
330
47
102
}
330
47
100
AcDbScale
 70
     0
300
3" = 1'-0"
140
3.0
141
12.0
290
     0
  0
SCALE
  5
67
102
{ACAD_REACTORS
330
47
102
}
330
47
100
AcDbScale
 70
     0
300
6" = 1'-0"
140
6.0
141
12.0
290
     0
  0
SCALE
  5
68
102
{ACAD_REACTORS
330
47
102
}
330
47
100
AcDbScale
 70
     0
300
1'-0" = 1'-0"
140
12.0
141
12.0
290
     0
  0
ENDSEC
  0
EOF
